<svg fill="none" height="24" viewBox="0 0 24 24" width="24" xmlns="http://www.w3.org/2000/svg" xmlns:xlink="http://www.w3.org/1999/xlink"><clipPath id="a"><path d="m0 0h24v24h-24z"/></clipPath><g clip-path="url(#a)"><path d="m18.8952 22.5169c-.7978.8674-2.6463 1.4558-4.3014 1.4831h-.1815c-5.5575 0-6.76603-4.1643-6.76603-6.5937v-6.7483h-2.18786c-.12158 0-.23818-.0493-.32414-.1368-.08597-.0876-.13427-.2064-.13427-.3303v-3.18768c-.00014-.16407.04958-.32417.14232-.4583.09273-.13414.22395-.23573.37562-.29084 2.85464-1.02515 3.74764-3.56071 3.86969-5.489683.03572-.515606.29767-.76430835.73817-.76430835h3.2744c.0609-.00120995.1215.00997645.1782.03290705.0566.0229305.1082.0571438.1517.1006373.0435.043493.0781.095392.1017.152662s.0357.118761.0357.180872v5.401723h3.8221c.1216 0 .2382.04921.3241.1368.086.0876.1343.2064.1343.33028v3.83063c0 .1239-.0483.2427-.1343.3303-.0859.0876-.2025.1368-.3241.1368h-3.8399v6.2449c0 1.568 1.015 2.0017 1.6401 2.0017.5102-.0224 1.0131-.1311 1.4884-.3215.1827-.0978.3908-.1349.5953-.1061.0841.0248.16.0722.2197.1374.0597.0651.1011.1455.1196.2326l1.0121 3.0148c.0685.2366.1399.4974-.0297.6794z" fill="#000"/></g></svg>